####
#
# OBJ File Generated by Meshlab
#
####
# Object engine.obj
#
# Vertices: 143
# Faces: 220
#
####
mtllib ./engine.obj.mtl

vn -1.781942 2.220912 2.133106
v -0.393310 0.059655 0.178359
vn -2.537406 2.243931 -1.231097
v -0.401699 0.059655 0.137266
vn -0.774641 3.045037 -2.922763
v -0.206758 0.078285 0.044985
vn 0.716186 3.054973 -3.003314
v -0.069686 0.078285 0.044985
vn 2.245665 1.968942 -0.770912
v -0.020503 0.078285 0.069659
vn 1.627698 2.454275 2.319540
v -0.065065 0.078285 0.161642
vn 0.051507 3.359415 3.048882
v -0.192934 0.078285 0.175784
vn -1.589935 2.603336 -0.903182
v -0.201253 0.028317 -0.172610
vn -1.072313 2.857184 -0.903987
v -0.159034 0.049038 -0.172610
vn 0.000012 3.050823 -0.931137
v -0.130728 0.056623 -0.172610
vn 1.525423 2.642086 -0.931164
v -0.102422 0.049038 -0.172610
vn 2.642141 1.525299 -0.931184
v -0.081701 0.028317 -0.172610
vn -3.168460 5.188101 -0.873628
v -0.207075 0.037851 -0.134878
vn 5.027381 2.902347 -0.845638
v -0.071727 0.034075 -0.134878
vn 2.902504 5.027365 -0.845636
v -0.096664 0.059012 -0.134878
vn -0.000016 5.805112 -0.845605
v -0.130728 0.068139 -0.134878
vn -2.133954 5.685987 -0.872791
v -0.162962 0.059502 -0.134878
vn -1.630493 2.669794 0.000000
v -0.207075 0.037851 0.063174
vn -0.406552 3.088070 0.000000
v -0.130728 0.068139 0.063174
vn -1.098642 2.927384 0.000000
v -0.162962 0.059502 0.063174
vn 5.006949 2.768420 -2.043106
v -0.071727 0.034075 -0.038903
vn 2.700643 5.246495 -1.661817
v -0.096664 0.059012 -0.038903
vn -0.269182 6.110111 -0.237049
v -0.130728 0.068139 -0.038903
vn 2.659322 0.108464 -4.806903
v -0.032952 0.034075 0.017765
vn 2.286560 0.233752 -5.268421
v -0.032952 0.059012 0.017765
vn 1.026907 3.867774 -2.757711
v -0.032952 0.068139 0.017765
vn 0.000000 3.141592 1.449539
v -0.032952 0.068139 0.063174
vn 1.570796 1.570796 -1.570796
v 0.031871 0.068139 0.017765
vn 1.570796 1.570796 1.570796
v 0.031871 0.068139 0.063174
vn 1.627697 -2.454278 2.319540
v -0.065065 -0.078284 0.161642
vn 2.245666 -1.968946 -0.770913
v -0.020503 -0.078284 0.069659
vn 0.716186 -3.054977 -3.003315
v -0.069686 -0.078284 0.044985
vn -0.774644 -3.045040 -2.922757
v -0.206758 -0.078284 0.044985
vn 0.051501 -3.359419 3.048886
v -0.192934 -0.078284 0.175784
vn 1.514721 -0.000003 -5.710393
v -0.063692 0.000000 0.035808
vn 3.933025 -0.000003 -1.208117
v -0.007396 0.000000 0.066919
vn 3.089463 -0.000003 4.324230
v -0.058847 0.000000 0.167877
vn -1.323756 -0.000004 -5.836954
v -0.207394 0.000000 0.035808
vn 0.383521 -0.000003 6.209389
v -0.192902 0.000000 0.183887
vn -4.137784 -0.000007 -2.021727
v -0.411130 0.000000 0.133965
vn -2.537412 -2.243940 -1.231099
v -0.401699 -0.059654 0.137266
vn -1.781947 -2.220923 2.133110
v -0.393310 -0.059654 0.178359
vn -2.842529 -0.000007 3.437482
v -0.400770 0.000000 0.186081
vn -1.108059 -1.487304 -0.546953
v -0.239260 0.000000 -0.172610
vn -1.589925 -2.603328 -0.903208
v -0.201253 -0.028316 -0.172610
vn -1.072305 -2.857181 -0.904027
v -0.159034 -0.049037 -0.172610
vn 0.000004 -3.050818 -0.931195
v -0.130728 -0.056622 -0.172610
vn 1.525437 -2.642074 -0.931180
v -0.102422 -0.049037 -0.172610
vn 2.642142 -1.525302 -0.931192
v -0.081701 -0.028316 -0.172610
vn 3.050836 -0.000016 -0.931191
v -0.074116 0.000000 -0.172610
vn -1.630563 -2.188812 -0.341633
v -0.257885 0.000000 -0.134878
vn -3.168456 -5.188101 -0.873665
v -0.207075 -0.037850 -0.134878
vn 5.027373 -2.902369 -0.845650
v -0.071727 -0.034074 -0.134878
vn 5.805195 -0.000020 -0.845680
v -0.062599 0.000000 -0.134878
vn 2.902550 -5.027350 -0.845641
v -0.096664 -0.059011 -0.134878
vn 0.000016 -5.805085 -0.845642
v -0.130728 -0.068139 -0.134878
vn -2.133955 -5.685962 -0.872832
v -0.162962 -0.059502 -0.134878
vn -0.938403 1.259683 0.000000
v -0.257885 0.000000 0.063174
vn -1.630493 -2.669797 0.000000
v -0.207075 -0.037850 0.063174
vn 5.006944 -2.768435 -2.043103
v -0.071727 -0.034074 -0.038903
vn 5.860290 -0.000021 -1.793736
v -0.062599 0.000000 -0.038903
vn 2.700689 -5.246456 -1.661857
v -0.096664 -0.059011 -0.038903
vn -0.269145 -6.110107 -0.237061
v -0.130728 -0.068139 -0.038903
vn -1.098649 -2.927379 0.000000
v -0.162962 -0.059502 0.063174
vn -0.406547 -3.088072 0.000000
v -0.130728 -0.068139 0.063174
vn 1.570796 -1.570796 -1.570796
v 0.031871 -0.068139 0.017765
vn 1.570796 -1.570796 1.570796
v 0.031871 -0.068139 0.063174
vn 3.141593 0.000000 3.141593
v 0.031871 0.000000 0.063174
vn 3.141593 0.000000 -3.141593
v 0.031871 0.000000 0.017765
vn 2.659323 -0.108464 -4.806903
v -0.032952 -0.034074 0.017765
vn 2.783656 0.000000 -4.597911
v -0.032952 0.000000 0.017765
vn 2.286560 -0.233752 -5.268421
v -0.032952 -0.059011 0.017765
vn 1.026906 -3.867774 -2.757712
v -0.032952 -0.068139 0.017765
vn 0.000000 -3.141592 1.449539
v -0.032952 -0.068139 0.063174
vn 0.000000 0.000000 3.384107
v -0.024649 0.000000 0.063174
vn -1.108087 1.487269 -0.546967
v -0.239260 0.000000 -0.172610
vn -1.630593 2.188793 -0.341632
v -0.257885 0.000000 -0.134878
vn -0.938391 -1.259692 0.000000
v -0.257885 0.000000 0.063174
vn -3.192880 5.362104 -0.185820
v -0.201253 0.028317 -0.573978
vn -2.121421 5.828388 -0.404365
v -0.159034 0.049038 -0.573978
vn 0.094054 5.890525 -0.645475
v -0.130728 0.056623 -0.573978
vn 2.957027 4.929614 -0.959182
v -0.102422 0.049038 -0.573978
vn 4.887192 2.745084 -1.204979
v -0.081701 0.028317 -0.573978
vn -2.878990 5.552759 -0.468687
v -0.207098 0.019149 -0.639936
vn -2.097450 5.844176 -0.860662
v -0.172853 0.033160 -0.649293
vn -0.139956 5.549826 -1.953237
v -0.150619 0.038288 -0.659156
vn 2.151972 4.106194 -3.106032
v -0.137792 0.033160 -0.665137
vn 3.525019 2.073860 -3.833670
v -0.128402 0.019149 -0.669516
vn -3.192859 -5.362132 -0.185803
v -0.201253 -0.028316 -0.573978
vn -1.872271 -2.513075 -0.009000
v -0.239260 0.000000 -0.573978
vn -2.121395 -5.828385 -0.404370
v -0.159034 -0.049037 -0.573978
vn 0.094044 -5.890555 -0.645467
v -0.130728 -0.056622 -0.573978
vn 2.957018 -4.929587 -0.959177
v -0.102422 -0.049037 -0.573978
vn 4.887217 -2.745100 -1.204985
v -0.081701 -0.028316 -0.573978
vn 5.545663 -0.000032 -1.294734
v -0.074116 0.000000 -0.573978
vn -2.878931 -5.552794 -0.468667
v -0.207098 -0.019148 -0.639936
vn -1.666227 -2.624696 -0.109759
v -0.238632 0.000000 -0.639140
vn -2.097461 -5.844185 -0.860614
v -0.172853 -0.033159 -0.649293
vn -0.139922 -5.549795 -1.953226
v -0.150619 -0.038287 -0.659156
vn 2.152020 -4.106203 -3.106055
v -0.137792 -0.033159 -0.665137
vn 3.525012 -2.073901 -3.833657
v -0.128402 -0.019148 -0.669516
vn 3.912950 -0.000021 -4.042741
v -0.124965 0.000000 -0.671118
vn -0.649973 -0.000005 -0.836557
v -0.234930 0.000000 -0.720376
vn -1.872330 2.513031 -0.009000
v -0.239260 0.000000 -0.573978
vn -1.666281 2.624661 -0.109764
v -0.238632 0.000000 -0.639140
vn -1.630561 2.669741 0.000000
v -0.201253 0.028317 -0.172610
vn -1.098656 2.927382 0.000000
v -0.159034 0.049038 -0.172610
vn 0.000000 3.034534 0.000000
v -0.130728 0.056623 -0.172610
vn 1.517296 2.627985 0.000000
v -0.102422 0.049038 -0.172610
vn 2.628026 1.517150 0.000000
v -0.081701 0.028317 -0.172610
vn -0.938452 -1.259647 0.000000
v -0.239260 0.000000 -0.172610
vn -1.630546 -2.669755 0.000000
v -0.201253 -0.028316 -0.172610
vn -1.098649 -2.927380 0.000000
v -0.159034 -0.049037 -0.172610
vn 0.000000 -3.034545 0.000000
v -0.130728 -0.056622 -0.172610
vn 1.517290 -2.627978 0.000000
v -0.102422 -0.049037 -0.172610
vn 2.628035 -1.517154 0.000000
v -0.081701 -0.028316 -0.172610
vn 3.034606 -0.000018 0.000000
v -0.074116 0.000000 -0.172610
vn -0.938481 1.259625 0.000000
v -0.239260 0.000000 -0.172610
vn 0.000000 1.517105 2.628053
v -0.130728 0.025379 -0.465433
vn 0.000000 2.627981 1.517265
v -0.130728 0.043951 -0.484004
vn 0.000000 3.034560 0.000001
v -0.130728 0.050748 -0.509373
vn 0.000000 2.627982 -1.517264
v -0.130728 0.043951 -0.534742
vn 0.000000 1.517102 -2.628054
v -0.130728 0.025379 -0.553313
vn -2.617914 1.517105 2.628052
v -0.276255 0.025379 -0.465433
vn -2.617958 2.627981 1.517265
v -0.276255 0.043951 -0.484004
vn -2.618031 3.034561 0.000001
v -0.276255 0.050748 -0.509373
vn -2.617958 2.627981 -1.517264
v -0.276255 0.043951 -0.534742
vn -2.617912 1.517102 -2.628054
v -0.276255 0.025379 -0.553313
vn 0.000000 0.000002 3.034625
v -0.130728 0.000000 -0.458635
vn 0.000000 -1.517137 2.628019
v -0.130728 -0.025379 -0.465433
vn -2.617882 -1.517137 2.628019
v -0.276255 -0.025379 -0.465433
vn -2.618190 0.000002 3.034625
v -0.276255 0.000000 -0.458635
vn 0.000000 -2.628009 1.517254
v -0.130728 -0.043950 -0.484004
vn -2.618004 -2.628009 1.517254
v -0.276255 -0.043950 -0.484004
vn 0.000000 -3.034548 0.000001
v -0.130728 -0.050747 -0.509373
vn -2.618000 -3.034548 0.000001
v -0.276255 -0.050747 -0.509373
vn 0.000000 -2.628009 -1.517253
v -0.130728 -0.043950 -0.534742
vn -2.618003 -2.628010 -1.517254
v -0.276255 -0.043950 -0.534742
vn 0.000000 -1.517134 -2.628020
v -0.130728 -0.025379 -0.553313
vn -2.617880 -1.517134 -2.628020
v -0.276255 -0.025379 -0.553313
vn 0.000000 0.000002 -3.034627
v -0.130728 0.000000 -0.560111
vn -2.618195 0.000002 -3.034627
v -0.276255 0.000000 -0.560111
vn -6.283185 0.000000 0.000000
v -0.276255 0.000000 -0.509373
# 143 vertices, 0 vertices normals


usemtl material_0
vt 0.000000 0.000000
f 6/1/6 3/1/3 7/1/7
f 35/1/35 4/1/4 36/1/36
f 36/1/36 5/1/5 37/1/37
f 38/1/38 3/1/3 35/1/35
f 37/1/37 6/1/6 39/1/39
f 40/1/40 2/1/2 38/1/38
f 39/1/39 7/1/7 43/1/43
f 43/1/43 1/1/1 40/1/40
f 3/1/3 2/1/2 7/1/7
f 8/1/8 77/1/77 13/1/13
f 50/1/50 14/1/14 54/1/54
f 12/1/12 15/1/15 14/1/14
f 11/1/11 16/1/16 15/1/15
f 10/1/10 17/1/17 16/1/16
f 9/1/9 13/1/13 17/1/17
f 13/1/13 58/1/58 18/1/18
f 54/1/54 14/1/14 61/1/61
f 14/1/14 15/1/15 21/1/21
f 15/1/15 16/1/16 22/1/22
f 16/1/16 20/1/20 23/1/23
f 17/1/17 18/1/18 20/1/20
f 28/1/28 29/1/29 69/1/69
f 61/1/61 24/1/24 71/1/71
f 21/1/21 25/1/25 24/1/24
f 22/1/22 26/1/26 25/1/25
f 23/1/23 27/1/27 26/1/26
f 27/1/27 68/1/68 29/1/29
f 71/1/71 28/1/28 69/1/69
f 24/1/24 25/1/25 28/1/28
f 25/1/25 26/1/26 28/1/28
f 26/1/26 29/1/29 28/1/28
f 30/1/30 32/1/32 31/1/31
f 36/1/36 31/1/31 32/1/32
f 37/1/37 30/1/30 31/1/31
f 35/1/35 32/1/32 33/1/33
f 39/1/39 34/1/34 30/1/30
f 38/1/38 33/1/33 41/1/41
f 43/1/43 42/1/42 34/1/34
f 40/1/40 41/1/41 42/1/42
f 34/1/34 42/1/42 41/1/41
f 45/1/45 51/1/51 44/1/44
f 50/1/50 53/1/53 49/1/49
f 49/1/49 55/1/55 48/1/48
f 48/1/48 56/1/56 47/1/47
f 47/1/47 57/1/57 46/1/46
f 46/1/46 52/1/52 45/1/45
f 52/1/52 78/1/78 51/1/51
f 61/1/61 60/1/60 53/1/53
f 60/1/60 62/1/62 55/1/55
f 62/1/62 63/1/63 56/1/56
f 56/1/56 64/1/64 57/1/57
f 57/1/57 59/1/59 52/1/52
f 69/1/69 68/1/68 67/1/67
f 61/1/61 70/1/70 60/1/60
f 60/1/60 72/1/72 62/1/62
f 62/1/62 73/1/73 63/1/63
f 63/1/63 74/1/74 65/1/65
f 74/1/74 68/1/68 75/1/75
f 71/1/71 66/1/66 70/1/70
f 70/1/70 66/1/66 72/1/72
f 72/1/72 66/1/66 73/1/73
f 73/1/73 67/1/67 74/1/74
f 118/1/118 79/1/79 104/1/104
f 106/1/106 80/1/80 79/1/79
f 107/1/107 81/1/81 80/1/80
f 108/1/108 82/1/82 81/1/81
f 109/1/109 83/1/83 82/1/82
f 110/1/110 95/1/95 83/1/83
f 104/1/104 79/1/79 105/1/105
f 79/1/79 80/1/80 84/1/84
f 80/1/80 81/1/81 85/1/85
f 81/1/81 82/1/82 86/1/86
f 82/1/82 83/1/83 87/1/87
f 83/1/83 95/1/95 88/1/88
f 84/1/84 103/1/103 105/1/105
f 85/1/85 103/1/103 84/1/84
f 86/1/86 103/1/103 85/1/85
f 87/1/87 103/1/103 86/1/86
f 88/1/88 103/1/103 87/1/87
f 102/1/102 103/1/103 88/1/88
f 111/1/111 89/1/89 112/1/112
f 112/1/112 91/1/91 113/1/113
f 113/1/113 92/1/92 114/1/114
f 114/1/114 93/1/93 115/1/115
f 115/1/115 94/1/94 116/1/116
f 116/1/116 95/1/95 117/1/117
f 97/1/97 96/1/96 89/1/89
f 96/1/96 98/1/98 91/1/91
f 98/1/98 99/1/99 92/1/92
f 99/1/99 100/1/100 93/1/93
f 100/1/100 101/1/101 94/1/94
f 101/1/101 102/1/102 95/1/95
f 96/1/96 97/1/97 103/1/103
f 98/1/98 96/1/96 103/1/103
f 99/1/99 98/1/98 103/1/103
f 100/1/100 99/1/99 103/1/103
f 101/1/101 100/1/100 103/1/103
f 102/1/102 101/1/101 103/1/103
f 129/1/129 124/1/124 132/1/132
f 119/1/119 125/1/125 124/1/124
f 120/1/120 126/1/126 125/1/125
f 121/1/121 127/1/127 126/1/126
f 122/1/122 128/1/128 127/1/127
f 123/1/123 142/1/142 128/1/128
f 132/1/132 124/1/124 143/1/143
f 124/1/124 125/1/125 143/1/143
f 125/1/125 126/1/126 143/1/143
f 126/1/126 127/1/127 143/1/143
f 127/1/127 128/1/128 143/1/143
f 128/1/128 142/1/142 143/1/143
f 129/1/129 131/1/131 130/1/130
f 130/1/130 134/1/134 133/1/133
f 133/1/133 136/1/136 135/1/135
f 135/1/135 138/1/138 137/1/137
f 137/1/137 140/1/140 139/1/139
f 139/1/139 142/1/142 141/1/141
f 132/1/132 143/1/143 131/1/131
f 131/1/131 143/1/143 134/1/134
f 134/1/134 143/1/143 136/1/136
f 136/1/136 143/1/143 138/1/138
f 138/1/138 143/1/143 140/1/140
f 140/1/140 143/1/143 142/1/142
f 6/1/6 5/1/5 4/1/4
f 6/1/6 4/1/4 3/1/3
f 4/1/4 5/1/5 36/1/36
f 5/1/5 6/1/6 37/1/37
f 3/1/3 4/1/4 35/1/35
f 6/1/6 7/1/7 39/1/39
f 2/1/2 3/1/3 38/1/38
f 7/1/7 1/1/1 43/1/43
f 1/1/1 2/1/2 40/1/40
f 2/1/2 1/1/1 7/1/7
f 8/1/8 76/1/76 77/1/77
f 50/1/50 12/1/12 14/1/14
f 12/1/12 11/1/11 15/1/15
f 11/1/11 10/1/10 16/1/16
f 10/1/10 9/1/9 17/1/17
f 9/1/9 8/1/8 13/1/13
f 13/1/13 77/1/77 58/1/58
f 14/1/14 21/1/21 61/1/61
f 15/1/15 22/1/22 21/1/21
f 16/1/16 23/1/23 22/1/22
f 16/1/16 17/1/17 20/1/20
f 20/1/20 19/1/19 23/1/23
f 17/1/17 13/1/13 18/1/18
f 29/1/29 68/1/68 69/1/69
f 61/1/61 21/1/21 24/1/24
f 21/1/21 22/1/22 25/1/25
f 22/1/22 23/1/23 26/1/26
f 23/1/23 19/1/19 27/1/27
f 27/1/27 75/1/75 68/1/68
f 71/1/71 24/1/24 28/1/28
f 26/1/26 27/1/27 29/1/29
f 30/1/30 34/1/34 33/1/33
f 30/1/30 33/1/33 32/1/32
f 32/1/32 35/1/35 36/1/36
f 31/1/31 36/1/36 37/1/37
f 33/1/33 38/1/38 35/1/35
f 30/1/30 37/1/37 39/1/39
f 41/1/41 40/1/40 38/1/38
f 34/1/34 39/1/39 43/1/43
f 42/1/42 43/1/43 40/1/40
f 41/1/41 33/1/33 34/1/34
f 45/1/45 52/1/52 51/1/51
f 50/1/50 54/1/54 53/1/53
f 49/1/49 53/1/53 55/1/55
f 48/1/48 55/1/55 56/1/56
f 47/1/47 56/1/56 57/1/57
f 46/1/46 57/1/57 52/1/52
f 52/1/52 59/1/59 78/1/78
f 53/1/53 54/1/54 61/1/61
f 55/1/55 53/1/53 60/1/60
f 56/1/56 55/1/55 62/1/62
f 63/1/63 65/1/65 64/1/64
f 56/1/56 63/1/63 64/1/64
f 57/1/57 64/1/64 59/1/59
f 67/1/67 66/1/66 69/1/69
f 61/1/61 71/1/71 70/1/70
f 60/1/60 70/1/70 72/1/72
f 62/1/62 72/1/72 73/1/73
f 63/1/63 73/1/73 74/1/74
f 74/1/74 67/1/67 68/1/68
f 71/1/71 69/1/69 66/1/66
f 73/1/73 66/1/66 67/1/67
f 118/1/118 106/1/106 79/1/79
f 106/1/106 107/1/107 80/1/80
f 107/1/107 108/1/108 81/1/81
f 108/1/108 109/1/109 82/1/82
f 109/1/109 110/1/110 83/1/83
f 110/1/110 117/1/117 95/1/95
f 79/1/79 84/1/84 105/1/105
f 80/1/80 85/1/85 84/1/84
f 81/1/81 86/1/86 85/1/85
f 82/1/82 87/1/87 86/1/86
f 83/1/83 88/1/88 87/1/87
f 95/1/95 102/1/102 88/1/88
f 111/1/111 90/1/90 89/1/89
f 112/1/112 89/1/89 91/1/91
f 113/1/113 91/1/91 92/1/92
f 114/1/114 92/1/92 93/1/93
f 115/1/115 93/1/93 94/1/94
f 116/1/116 94/1/94 95/1/95
f 89/1/89 90/1/90 97/1/97
f 91/1/91 89/1/89 96/1/96
f 92/1/92 91/1/91 98/1/98
f 93/1/93 92/1/92 99/1/99
f 94/1/94 93/1/93 100/1/100
f 95/1/95 94/1/94 101/1/101
f 129/1/129 119/1/119 124/1/124
f 119/1/119 120/1/120 125/1/125
f 120/1/120 121/1/121 126/1/126
f 121/1/121 122/1/122 127/1/127
f 122/1/122 123/1/123 128/1/128
f 123/1/123 141/1/141 142/1/142
f 129/1/129 132/1/132 131/1/131
f 130/1/130 131/1/131 134/1/134
f 133/1/133 134/1/134 136/1/136
f 135/1/135 136/1/136 138/1/138
f 137/1/137 138/1/138 140/1/140
f 139/1/139 140/1/140 142/1/142
# 220 faces, 1 coords texture

# End of File
